HIERARCHY
ROOT Hips
{
	OFFSET 0.00000 0.00000 0.00000
	CHANNELS 6 Xposition Yposition Zposition Yrotation Zrotation Xrotation 
	JOINT Lumbar
	{
		OFFSET 0 0 0
		CHANNELS 3 Zrotation Xrotation Yrotation
		JOINT Neck
		{
			OFFSET 0.00 0.2701 0.00
			CHANNELS 3 Zrotation Xrotation Yrotation
			End Site
			{
				OFFSET 0.00 0.1379 0.00
			}
		}
		JOINT RightShoulder
		{
			OFFSET 0.0119 0.2289 0.1181
			CHANNELS 3 Zrotation Xrotation Yrotation
			JOINT RightElbow
			{
				OFFSET 0.00 -0.1475 0.00
				CHANNELS 2 Zrotation Yrotation
				JOINT RightWrist
				{
					OFFSET 0.00 -0.1605 0.00
					CHANNELS 2 Zrotation Xrotation
					End Site
					{
						OFFSET 0.0040 -0.1068 0.0006
					}
				}
			}
		}
		JOINT LeftShoulder
		{
			OFFSET 0.0119 0.2289 -0.1181
			CHANNELS 3 Zrotation Xrotation Yrotation
			JOINT LeftElbow
			{
				OFFSET 0.00 -0.1475 0.00
				CHANNELS 2 Zrotation Yrotation
				JOINT LeftWrist
				{
					OFFSET 0.00 -0.1605 0.00
					CHANNELS 2 Zrotation Xrotation
					End Site
					{
						OFFSET 0.0040 -0.1068 -0.0006
					}
				}
			}
		}
	}
	JOINT RightHip
	{
		OFFSET 0.0316 -0.0424 0.0458
		CHANNELS 3 Zrotation Xrotation Yrotation
		JOINT RightKnee
		{
			OFFSET 0.00 -0.2438 0.00
			CHANNELS 1 Zrotation
			JOINT RightAnkle
			{
				OFFSET 0.00 -0.2449 0.00
				CHANNELS 3 Zrotation Xrotation Yrotation
				End Site
				{
					OFFSET 0.1237 -0.0542 0.0051
				}
			}
		}
	}
	JOINT LeftHip
	{
		OFFSET 0.0316 -0.0424 -0.0458
		CHANNELS 3 Zrotation Xrotation Yrotation
		JOINT LeftKnee
		{
			OFFSET 0.00 -0.2438 0.00
			CHANNELS 1 Zrotation
			JOINT LeftAnkle
			{
				OFFSET 0.00 -0.2449 0.00
				CHANNELS 3 Zrotation Xrotation Yrotation
				End Site
				{
					OFFSET 0.1237 -0.0542 -0.0051
				}
			}
		}
	}
}
MOTION
Frames: 30
Frame Time: 0.02
0.22683 0.00191 0.03199 -175.96215 -46.90073 -4.10109 52.25064 0.92387 -4.8604 -7.11784 -2.12497 -2.11992 166.38669 -19.99439 -87.14684 128.93323 58.02292 -75.22911 -21.88468 166.38691 85.80528 87.14685 92.30956 -52.65665 -75.22915 21.88503 48.02123 -3.16216 -11.53542 -23.16058 -6.63736 -1.90575 -3.16188 58.56824 2.0662 12.28385 -26.10239 -7.07502 1.97927 3.22165
0.22745 0.00184 0.03244 -176.05875 -46.86021 -4.17643 52.1572 0.83922 -4.87722 -7.37784 -1.93787 -2.11992 166.38669 -19.86347 -87.14684 129.21541 58.05745 -75.22911 -21.88467 166.38691 86.06419 87.14684 92.33318 -52.72368 -75.22914 21.88497 48.1102 -3.16562 -11.49863 -23.25509 -6.63826 -1.9117 -3.16567 58.5802 2.05143 12.2524 -26.1142 -7.06527 1.98917 3.22661
0.2281 0.00176 0.03286 -176.13017 -46.81408 -4.22879 52.04764 0.73786 -4.92167 -7.64462 -1.74991 -2.11993 166.38665 -19.72314 -87.14683 129.48586 58.08715 -75.2291 -21.88467 166.38691 86.35019 87.14685 92.35093 -52.78494 -75.22914 21.885 48.21339 -3.16752 -11.38247 -23.37728 -6.63895 -1.92722 -3.17467 58.59064 2.02136 12.21056 -26.13254 -7.05466 1.9998 3.23212
0.22874 0.00169 0.0333 -176.21264 -46.77095 -4.29136 51.94294 0.64566 -4.95885 -7.90202 -1.5672 -2.11993 166.38676 -19.58408 -87.14685 129.75737 58.11788 -75.22913 -21.88468 166.38691 86.62527 87.14685 92.36918 -52.84561 -75.22914 21.88499 48.31376 -3.17302 -11.30849 -23.49264 -6.64 -1.93734 -3.18075 58.60182 1.99911 12.17702 -26.14685 -7.04481 2.0096 3.23713
0.22938 0.00159 0.03374 -176.29742 -46.72588 -4.35487 51.84778 0.54666 -4.97337 -8.18644 -1.36333 -2.11993 166.38662 -19.45739 -87.14682 130.04905 58.15418 -75.22909 -21.88466 166.38691 86.89706 87.14684 92.39676 -52.9214 -75.22914 21.88495 48.39878 -3.16695 -11.21152 -23.58308 -6.6399 -1.9516 -3.189 58.61313 1.97321 12.12899 -26.16569 -7.03337 2.02149 3.24321
0.23004 0.00154 0.03416 -176.37076 -46.68338 -4.41088 51.72944 0.45791 -5.04183 -8.41626 -1.20362 -2.11993 166.38663 -19.30296 -87.14682 130.29484 58.17736 -75.22909 -21.88466 166.38691 87.1804 87.14685 92.40339 -52.96408 -75.22914 21.885 48.51929 -3.18428 -11.14212 -23.73303 -6.64214 -1.95969 -3.19405 58.62343 1.95123 12.1083 -26.17656 -7.02505 2.02921 3.24719
0.23078 0.00158 0.03452 -176.42341 -46.65143 -4.4528 51.5487 0.40192 -5.25188 -8.49069 -1.16571 -2.11993 166.38711 -19.07269 -87.14694 130.41993 58.16684 -75.22923 -21.88474 166.38691 87.4981 87.14685 92.35413 -52.91246 -75.22917 21.88525 48.73208 -3.26761 -11.17346 -24.0304 -6.65117 -1.94756 -3.18856 58.6345 1.94437 12.16737 -26.1645 -7.02559 2.02509 3.24518
0.23156 0.00166 0.03485 -176.46433 -46.62196 -4.48775 51.34579 0.35678 -5.5154 -8.51036 -1.17243 -2.11993 166.38574 -18.81524 -87.14661 130.49833 58.14277 -75.22883 -21.88453 166.38692 87.82454 87.14686 92.28383 -52.82835 -75.22921 21.88559 48.98028 -3.37428 -11.2342 -24.38828 -6.66252 -1.92908 -3.17975 58.64403 1.94187 12.25399 -26.14408 -7.02931 2.01675 3.24104
0.23231 0.00172 0.03519 -176.50773 -46.58999 -4.52535 51.15453 0.30652 -5.75489 -8.55697 -1.15904 -2.11993 166.38772 -18.5712 -87.14708 130.59588 58.1242 -75.22942 -21.88483 166.38692 88.14077 87.14686 92.22281 -52.7615 -75.22924 21.88588 49.21391 -3.4695 -11.2775 -24.72536 -6.67267 -1.91408 -3.17274 58.65214 1.93703 12.32667 -26.12705 -7.03157 2.01047 3.23793
0.2331 0.00179 0.03555 -176.56303 -46.56344 -4.56455 50.95569 0.25657 -5.99423 -8.59525 -1.1449 -2.11993 166.3873 -18.32205 -87.14698 130.7021 58.10907 -75.22929 -21.88477 166.38693 88.48434 87.14687 92.1629 -52.68348 -75.22927 21.8862 49.44234 -3.56818 -11.33444 -25.03618 -6.68347 -1.89687 -3.16468 58.66906 1.93321 12.40468 -26.11193 -7.03386 2.00371 3.23462
0.23382 0.00186 0.03585 -176.59017 -46.52648 -4.59876 50.76802 0.20865 -6.24618 -8.63765 -1.14293 -2.11993 166.38114 -18.07758 -87.14553 130.77893 58.08261 -75.22747 -21.88385 166.38693 88.77265 87.14687 92.09559 -52.62166 -75.2293 21.88647 49.68893 -3.66527 -11.37206 -25.41439 -6.69341 -1.88264 -3.15794 58.66739 1.92845 12.47865 -26.09084 -7.03683 1.9968 3.23116
0.23437 0.00198 0.03601 -176.55075 -46.45847 -4.62363 50.61323 0.16478 -6.5199 -8.70589 -1.16375 -2.11993 166.39958 -17.85677 -87.14989 130.78541 58.03308 -75.23293 -21.8866 166.38694 88.90612 87.14687 92.01462 -52.60745 -75.22932 21.88659 49.98421 -3.75169 -11.34006 -25.97439 -6.70071 -1.87827 -3.15568 58.61372 1.92051 12.53078 -26.05466 -7.04115 1.99179 3.22838
0.23484 0.0021 0.03611 -176.48215 -46.38024 -4.64337 50.47126 0.12251 -6.80413 -8.77987 -1.19525 -2.11993 166.37151 -17.64586 -87.14325 130.76135 57.96928 -75.22461 -21.88243 166.38694 88.98356 87.14687 91.92678 -52.61156 -75.22932 21.88665 50.29489 -3.8357 -11.28963 -26.5976 -6.707 -1.87708 -3.15483 58.54161 1.91145 12.5783 -26.01287 -7.04601 1.98659 3.22544
0.23535 0.00222 0.03624 -176.42139 -46.3078 -4.66372 50.32567 0.0788 -7.08366 -8.85058 -1.22182 -2.11993 166.38085 -17.42145 -87.14547 130.75521 57.91191 -75.2274 -21.88382 166.38694 89.08658 87.14688 91.84086 -52.61073 -75.22933 21.88672 50.59398 -3.92137 -11.25407 -27.18539 -6.71354 -1.87432 -3.15328 58.47862 1.90268 12.63102 -25.97405 -7.05048 1.98056 3.22218
0.23588 0.00235 0.03638 -176.38243 -46.23055 -4.69089 50.16969 0.03824 -7.3656 -8.92246 -1.25034 -2.11994 166.45825 -17.21365 -87.16376 130.74165 57.86432 -75.25033 -21.89533 166.38694 89.1894 87.14688 91.75872 -52.59475 -75.22934 21.88684 50.91458 -4.006 -11.19232 -27.80531 -6.72104 -1.87181 -3.15181 58.41238 1.89501 12.67305 -25.93312 -7.05567 1.97802 3.22042
0.23633 0.00245 0.03648 -176.2921 -46.16094 -4.70298 50.03904 -0.00836 -7.64326 -8.99363 -1.27664 -2.11994 166.21126 -16.99957 -87.10534 130.72279 57.78059 -75.17711 -21.85861 166.38694 89.27922 87.14688 91.66806 -52.61471 -75.22934 21.88685 51.19245 -4.09124 -11.18006 -28.37035 -6.72628 -1.86968 -3.15059 58.34861 1.88467 12.73402 -25.8954 -7.05946 1.9685 3.21565
0.23656 0.00245 0.03649 -176.06036 -46.11435 -4.67252 49.97245 -0.07459 -7.91511 -9.06444 -1.2951 -2.11994 166.60536 -16.53907 -87.19865 130.82223 57.71236 -75.294 -21.91722 166.38694 89.34675 87.14687 91.54945 -52.73295 -75.22931 21.88653 51.35787 -4.18443 -11.31145 -28.78642 -6.72542 -1.86737 -3.1495 58.29566 1.86783 12.86468 -25.86769 -7.05906 1.93746 3.20159
0.23671 0.00241 0.03646 -175.77938 -46.07593 -4.62752 49.93158 -0.14652 -8.18027 -9.13396 -1.31053 -2.11994 166.43001 -16.10907 -87.15695 130.89741 57.59046 -75.24186 -21.89113 166.38693 89.40304 87.14687 91.42376 -52.88617 -75.22926 21.8861 51.47784 -4.27712 -11.49251 -29.14131 -6.72235 -1.86544 -3.14866 58.24597 1.84829 13.01158 -25.8435 -7.05725 1.89984 3.1847
0.23689 0.0024 0.03645 -175.52521 -46.0341 -4.5906 49.88079 -0.21425 -8.44282 -9.20245 -1.32657 -2.11994 165.46385 -15.82061 -86.92872 130.8976 57.41601 -74.9557 -21.74751 166.38692 89.46454 87.14686 91.30541 -53.02132 -75.22922 21.88574 51.6123 -4.3662 -11.64925 -29.51216 -6.72038 -1.86369 -3.14788 58.19506 1.82949 13.13998 -25.81784 -7.05623 1.86679 3.16981
0.2371 0.00236 0.03644 -175.25069 -45.9905 -4.54716 49.82279 -0.28876 -8.73028 -9.27824 -1.34638 -2.11994 168.76202 -14.89816 -87.70886 131.24669 57.55342 -75.93332 -22.23791 166.38691 89.52388 87.14685 91.16935 -53.16653 -75.22917 21.88529 51.7733 -4.47145 -11.81337 -29.93557 -6.71798 -1.86063 -3.14644 58.14221 1.81243 13.31436 -25.79135 -7.05464 1.82711 3.15194
0.23722 0.00235 0.03642 -175.00802 -45.95285 -4.51406 49.78597 -0.35048 -8.96329 -9.33808 -1.3573 -2.11994 163.25093 -15.27604 -86.40417 130.88022 57.04434 -74.29899 -21.41838 166.38691 89.58551 87.14685 91.06865 -53.29851 -75.22914 21.88501 51.86808 -4.54287 -11.97338 -30.23372 -6.71596 -1.86027 -3.14638 58.09463 1.79148 13.39792 -25.7676 -7.05386 1.79962 3.13956
0.23713 0.00243 0.03636 -174.8588 -45.92786 -4.51186 49.79963 -0.37594 -9.05449 -9.35737 -1.3458 -2.11994 131.75841 -19.47356 -78.96552 128.40094 54.62813 -64.97139 -16.73698 166.38691 89.65871 87.14685 91.0669 -53.38832 -75.22917 21.88521 51.7902 -4.5216 -12.11667 -30.204 -6.71555 -1.86789 -3.15033 58.05903 1.7572 13.21769 -25.74982 -7.05584 1.80802 3.14326
0.23695 0.00253 0.03629 -174.74469 -45.90894 -4.52077 49.83401 -0.38828 -9.08972 -9.36008 -1.32514 -2.11994 91.74765 -24.93547 -69.50829 125.22856 51.58788 -53.11621 -10.78866 166.38692 89.73445 87.14686 91.10101 -53.46295 -75.2292 21.88557 51.64728 -4.46626 -12.25314 -30.04939 -6.71559 -1.87808 -3.15559 58.02904 1.71967 12.94722 -25.73486 -7.05862 1.8288 3.15252
0.23681 0.00261 0.03623 -174.61894 -45.88843 -4.52548 49.85999 -0.4063 -9.14604 -9.36825 -1.30765 -2.11994 56.82434 -29.66218 -61.24636 122.46817 48.92271 -42.76366 -5.59591 166.38692 89.80761 87.14686 91.11917 -53.54255 -75.22923 21.88584 51.5347 -4.42606 -12.38807 -29.9497 -6.71541 -1.88671 -3.16005 57.99773 1.68578 12.72401 -25.7191 -7.0609 1.84352 3.15905
0.23667 0.00271 0.03617 -174.47325 -45.86328 -4.52632 49.88252 -0.42562 -9.22069 -9.38502 -1.29416 -2.11994 16.77844 -35.06388 -51.81331 119.30003 45.87176 -30.92049 0.35421 166.38693 89.88619 87.14687 91.13604 -53.63159 -75.22927 21.8862 51.41741 -4.38704 -12.54343 -29.85586 -6.71522 -1.89706 -3.1654 57.96133 1.64277 12.47493 -25.70133 -7.06373 1.85986 3.16635
0.23651 0.00279 0.0361 -174.37804 -45.84912 -4.53775 49.9169 -0.43914 -9.24367 -9.38007 -1.27035 -2.11994 -14.65376 -39.36463 -44.3331 116.81355 43.47392 -21.57197 5.0325 166.38693 89.95443 87.14687 91.16367 -53.69682 -75.2293 21.88642 51.29487 -4.3378 -12.65508 -29.72073 -6.71518 -1.90434 -3.16917 57.93683 1.61789 12.25814 -25.68847 -7.0656 1.87585 3.17341
0.23628 0.00281 0.03596 -174.41433 -45.86374 -4.57841 49.97812 -0.43891 -9.14022 -9.31813 -1.21903 -2.11994 -19.85771 -40.27065 -42.81815 116.40874 43.05822 -19.83752 5.8365 166.38693 89.99195 87.14687 91.21714 -53.70042 -75.22927 21.88619 51.17567 -4.26595 -12.63786 -29.50432 -6.71567 -1.90324 -3.16859 57.94381 1.64498 12.15186 -25.68753 -7.06477 1.88803 3.17849
0.23602 0.00282 0.03581 -174.50034 -45.88914 -4.62893 50.05055 -0.43342 -8.98631 -9.23513 -1.15789 -2.11994 -16.16098 -40.03291 -43.32483 116.70868 43.31694 -20.68262 5.32585 166.38692 90.01932 87.14686 91.27944 -53.68029 -75.22923 21.88583 51.05328 -4.18549 -12.57849 -29.25059 -6.71627 -1.89881 -3.16631 57.96251 1.69022 12.08115 -25.69155 -7.06293 1.89947 3.18315
0.23578 0.00283 0.03566 -174.56337 -45.90963 -4.67322 50.11832 -0.43091 -8.85379 -9.16245 -1.1021 -2.11994 -16.77427 -40.34888 -42.85402 116.66627 43.24987 -20.27624 5.45142 166.38692 90.05241 87.14686 91.33442 -53.6706 -75.2292 21.88555 50.93132 -4.1108 -12.5446 -29.01279 -6.71668 -1.89539 -3.16459 57.97588 1.72643 11.99465 -25.69393 -7.06146 1.91115 3.18798
0.23554 0.00286 0.03552 -174.6292 -45.93051 -4.72519 50.18516 -0.4255 -8.72558 -9.08592 -1.04229 -2.11994 -16.57484 -40.56756 -42.55784 116.69185 43.24166 -20.11223 5.45891 166.38691 90.08089 87.14685 91.40419 -53.66197 -75.22916 21.88518 50.8114 -4.02715 -12.48373 -28.77483 -6.71768 -1.89416 -3.16383 57.98965 1.76588 11.90379 -25.69391 -7.06039 1.92358 3.19305
